<svg width="88" height="91" viewBox="0 0 88 91" fill="none" xmlns="http://www.w3.org/2000/svg">
<path d="M81.443 91C81.3842 90.9766 81.3825 90.9456 81.3782 90.8681C81.8997 90.557 82.4239 90.2924 83.0014 90.0115C82.5365 90.3275 82.0182 90.6599 81.443 91Z" fill="#DDFE02"/>
<path d="M87.0582 0.53597C86.9026 0.413162 86.7523 0.23133 86.5889 0C86.7383 0.125984 86.9008 0.301466 87.0582 0.53597Z" fill="#DDFE02"/>
<path d="M87.5404 1.31203C87.4238 1.20678 87.3104 1.0437 87.1804 0.83313C87.2904 0.941834 87.4171 1.09803 87.5404 1.31203Z" fill="#DDFE02"/>
<path d="M87.1643 0.744021C87.1291 0.746829 87.0927 0.707324 87.0513 0.626693C87.0852 0.624282 87.1241 0.662995 87.1643 0.744021Z" fill="#DDFE02"/>
<path d="M78.4726 69.6848C78.7502 69.959 79.0278 70.2332 79.3403 70.5939C79.422 70.7134 79.4687 70.7466 79.5153 70.7797C79.5153 70.7797 79.5026 70.7806 79.5199 70.8141C79.5845 70.8781 79.6319 70.9087 79.6793 70.9392C79.7295 70.9434 79.7683 70.9664 79.8046 71.117C79.8071 73.8048 79.8006 76.384 79.7218 78.9571C78.4185 78.9993 77.1871 79.0954 75.9564 79.0876C71.5685 79.0595 67.1809 78.9594 62.7931 78.9531C50.5087 78.9352 38.2243 78.9505 25.9371 78.8927C25.5617 78.5526 25.1892 78.2725 24.8192 77.9199C24.8231 74.4062 24.8282 70.9648 24.8193 67.5235C24.8186 67.2494 24.7217 66.9755 24.6431 66.6591C24.4254 66.6441 24.234 66.6716 23.9756 66.7124C23.6362 66.7167 23.3639 66.7077 23.0832 66.657C22.9762 66.6431 22.8775 66.6709 22.716 66.7117C22.4399 66.7283 22.2265 66.7317 21.9636 66.7768C21.8848 67.0973 21.8319 67.3762 21.8302 67.6554C21.8218 69.0261 21.848 70.3976 21.8103 71.7674C21.8024 72.0538 21.5766 72.3343 21.4363 72.6127C21.4214 72.6078 21.412 72.5781 21.432 72.5234C21.3028 72.3377 21.1537 72.2066 21.0196 72.0616C21.0345 72.0477 21.0073 72.0781 21.0158 72.0178C21.023 71.3247 20.5764 71.1155 20.0732 70.9644C20.0796 70.9626 20.0772 70.9756 20.0639 70.9361C20.0074 70.8631 19.9641 70.8296 19.9264 70.7949C19.9319 70.7937 19.9256 70.803 19.9275 70.7447C19.7097 70.468 19.49 70.2495 19.2769 70.03C19.2835 70.029 19.2815 70.0421 19.269 70.0015C19.2125 69.9267 19.1684 69.8926 19.1306 69.8582C19.1368 69.8579 19.1312 69.8689 19.1281 69.8199C19.0525 69.7241 18.98 69.6774 18.8992 69.6248C18.891 69.6189 18.8847 69.5997 18.9051 69.5452C18.7764 69.3581 18.6273 69.2254 18.4849 69.0913C18.4916 69.0898 18.4895 69.1033 18.4785 69.0623C18.4241 68.9864 18.3809 68.9514 18.3438 68.9158C18.35 68.9151 18.3426 68.925 18.3461 68.8665C18.129 68.5895 17.9084 68.3711 17.6946 68.1514C17.7013 68.1501 17.6987 68.1635 17.6874 68.1226C17.6329 68.0466 17.5897 68.0115 17.5526 67.976C17.5586 67.9756 17.5528 67.9862 17.549 67.9365C17.4719 67.8356 17.3985 67.7845 17.3421 67.723C17.3591 67.7127 17.3211 67.7245 17.3226 67.6817C17.2794 67.6076 17.2348 67.5763 17.1989 67.5414C17.2075 67.5377 17.2004 67.555 17.1931 67.5118C17.14 67.4353 17.0941 67.4019 17.057 67.3677C17.0659 67.3668 17.0627 67.3842 17.0513 67.3425C16.9949 67.2669 16.9498 67.2329 16.9123 67.1987C16.9199 67.1986 16.9177 67.2135 16.9052 67.174C16.8502 67.1007 16.8076 67.067 16.7695 67.0319C16.774 67.0307 16.7686 67.0381 16.7624 66.9866C16.6491 66.8678 16.5421 66.8005 16.4417 66.7306C16.4483 66.728 16.4514 66.7418 16.4065 66.6947C15.7128 66.6205 15.0639 66.5935 14.3743 66.5684C14.3054 66.6731 14.2772 66.7758 14.2489 66.9516C14.2499 70.3845 14.2472 73.7442 14.2579 77.1039C14.2588 77.4058 14.3462 77.7074 14.4032 78.0374C14.4129 78.0658 14.4155 78.1255 14.4283 78.1881C14.6718 78.3223 14.9003 78.4463 15.1335 78.4556C15.7819 78.4816 16.4322 78.4599 17.0838 78.5177C17.0871 78.6999 17.0883 78.8214 17.0155 78.9438C13.5424 78.9453 10.1434 78.9447 6.74435 78.9467C4.56761 78.9479 2.39088 78.953 0.208496 78.8823C0.249177 76.1856 0.295503 73.5631 0.341832 70.9406C0.341832 70.9406 0.344821 70.9492 0.376313 70.9294C0.43844 70.865 0.469076 70.8205 0.499712 70.7759C0.499712 70.7759 0.50038 70.7901 0.530406 70.7706C0.592666 70.7062 0.624903 70.6614 0.657137 70.6166C0.657137 70.6166 0.657669 70.633 0.687358 70.6123C0.74821 70.5443 0.779374 70.4971 0.810538 70.4498C0.810538 70.4498 0.808793 70.4678 0.856185 70.4648C2.35666 69.0678 3.81299 67.6771 5.25383 66.2708C5.33092 66.1956 5.27773 65.989 5.28518 65.8435C5.28518 65.8435 5.29561 65.8331 5.35508 65.8502C6.11315 65.2175 6.86291 64.6127 7.49508 63.9046C8.05612 63.2761 8.67474 63.0967 9.49789 63.099C18.4388 63.1235 27.3798 63.1157 36.3207 63.099C36.642 63.0984 36.9629 62.9153 37.284 62.8172C37.284 62.8172 37.2652 62.7989 37.3185 62.7908C37.4025 62.7782 37.4331 62.7738 37.5312 62.773C38.9755 62.7346 40.3523 62.6925 41.7653 62.6539C41.8014 62.6575 41.8735 62.6502 41.9072 62.6589C41.9408 62.6675 42.0096 62.6774 42.0096 62.6774C42.0537 62.7486 42.0978 62.8198 42.2233 62.9615C42.6414 63.0588 42.9782 63.109 43.315 63.1091C52.8479 63.1129 62.3808 63.1116 71.9137 63.1111C71.9137 63.1111 71.907 63.1127 71.9275 63.1453C71.9933 63.2085 72.0386 63.2391 72.0838 63.2697C72.137 63.2684 72.1777 63.2902 72.2332 63.4079C72.3057 63.5138 72.3508 63.547 72.3958 63.5802C72.3958 63.5802 72.3839 63.5804 72.4026 63.611C72.465 63.6735 72.5088 63.7053 72.5526 63.7372C72.5526 63.7372 72.5414 63.7372 72.5605 63.7682C72.6243 63.8305 72.6688 63.8619 72.7133 63.8933C72.7133 63.8933 72.7002 63.8937 72.7191 63.9242C72.7831 63.9863 72.8281 64.0179 72.8731 64.0494C72.8731 64.0494 72.8584 64.0496 72.8772 64.0795C72.94 64.1419 72.984 64.1745 73.0281 64.207C73.0281 64.207 73.0159 64.2072 73.0346 64.2379C73.0976 64.3002 73.1419 64.3319 73.1861 64.3636C73.1861 64.3636 73.1739 64.3638 73.1933 64.3955C73.2586 64.4591 73.3045 64.4911 73.3504 64.5231C73.4022 64.5231 73.4425 64.5446 73.4978 64.6603C73.5696 64.7668 73.6147 64.8004 73.6597 64.8341C73.6597 64.8341 73.6489 64.8339 73.6498 64.8872C73.8105 65.0606 73.9702 65.1807 74.1299 65.3008C74.1299 65.3008 74.1206 65.3046 74.1398 65.3368C74.2037 65.401 74.2484 65.4329 74.293 65.4648C74.3475 65.4667 74.3887 65.4909 74.4447 65.6094C74.5166 65.7141 74.5603 65.7468 74.604 65.7794C74.6598 65.7796 74.7012 65.8039 74.746 65.9388C74.8648 66.1001 74.966 66.1748 75.0672 66.2495C75.0672 66.2495 75.0674 66.2471 75.0748 66.2962C75.1816 66.4182 75.2811 66.4911 75.3807 66.564C75.3807 66.564 75.3841 66.5598 75.3904 66.6099C75.4945 66.7335 75.5923 66.8071 75.69 66.8807C75.69 66.8807 75.6997 66.8737 75.7062 66.9264C75.7881 67.0267 75.8637 67.0744 75.9392 67.122C75.9392 67.122 75.8943 67.1382 75.9024 67.183C76.0188 67.3014 76.127 67.3751 76.2353 67.4488C76.2353 67.4488 76.2139 67.4563 76.2263 67.4908C76.2911 67.5568 76.3434 67.5881 76.3958 67.6195C76.3958 67.6195 76.365 67.6235 76.3798 67.6537C76.4474 67.7149 76.5002 67.7459 76.5531 67.7769C76.5531 67.7769 76.5223 67.7808 76.5372 67.8109C76.6049 67.8719 76.6577 67.9029 76.7105 67.9339C76.7105 67.9339 76.6798 67.9378 76.695 67.9678C76.7632 68.0283 76.8162 68.0587 76.8691 68.0891C76.8691 68.0891 76.8395 68.0933 76.8537 68.1239C76.9198 68.1869 76.9717 68.2192 77.0236 68.2514C77.0236 68.2514 76.9921 68.2551 77.0089 68.284C77.08 68.341 77.1341 68.3691 77.1883 68.3972C77.1883 68.3972 77.1594 68.4018 77.1733 68.4333C77.2405 68.4947 77.2937 68.5246 77.347 68.5545C77.347 68.5545 77.3172 68.5591 77.3314 68.5901C77.3995 68.6498 77.4533 68.6785 77.5071 68.7072C77.5071 68.7072 77.4791 68.7122 77.4916 68.7446C77.5566 68.8085 77.609 68.8401 77.6615 68.8716C77.6615 68.8716 77.6304 68.8757 77.6452 68.906C77.7134 68.9665 77.7669 68.9967 77.8204 69.0269C77.8204 69.0269 77.7898 69.0314 77.8035 69.0622C77.8693 69.1255 77.9215 69.1579 77.9737 69.1904C77.9737 69.1904 77.9415 69.1941 77.9577 69.2232C78.0278 69.2814 78.0817 69.3105 78.1356 69.3396C78.1356 69.3396 78.1062 69.3441 78.1196 69.3754C78.1851 69.4392 78.2371 69.4716 78.2892 69.5041C78.2892 69.5041 78.2547 69.5126 78.2747 69.5436C78.354 69.6113 78.4133 69.648 78.4726 69.6848ZM43.9989 66.6225C41.2843 66.6078 38.5697 66.5917 35.8551 66.5847C35.7666 66.5844 35.6779 66.6773 35.5703 66.8714C35.5703 70.6215 35.5703 74.3716 35.5703 78.1391C38.4662 78.1391 41.2707 78.1391 44.1108 78.1391C44.1108 77.3067 44.1108 76.5144 44.1108 75.6083C42.1118 75.6083 40.1568 75.6083 38.2083 75.6083C38.2083 74.9318 38.2083 74.3701 38.2083 73.7427C39.6222 73.7427 40.9815 73.7427 42.3623 73.7427C42.3623 72.9043 42.3623 72.1332 42.3623 71.2842C40.9462 71.2842 39.5684 71.2842 38.1682 71.2842C38.1682 70.5651 38.1682 69.9246 38.1682 69.2192C40.1665 69.2192 42.1287 69.2192 44.2261 69.2192C44.1818 68.3355 44.1409 67.5198 43.9989 66.6225ZM60.738 66.6881C60.5276 66.6884 60.3173 66.6858 60.107 66.6895C56.6089 66.7512 53.924 70.2053 54.7508 73.5793C55.4505 76.4345 58.06 78.3094 60.877 77.9809C63.7931 77.6409 65.9651 75.2445 65.9831 72.3472C66.0019 69.3257 63.9542 67.0582 60.738 66.6881Z" fill="#DDFE02"/>
<path d="M62.4696 58.3543C60.3526 58.3922 58.2357 58.43 56.0182 58.4013C55.9196 43.3695 55.923 28.4044 55.9083 13.4392C55.9081 13.2078 55.685 12.9764 55.5659 12.745C54.5697 12.4052 53.5735 12.0654 52.4975 11.6466C52.2788 11.5381 52.14 11.5085 52.0012 11.4788C52.0012 11.4788 52.024 11.46 52.0167 11.4167C52.4122 11.0723 52.746 10.7255 53.2305 10.478C54.9625 9.59311 56.7459 8.77843 58.1249 7.64745C59.2193 6.74993 60.9585 6.11658 62.4271 5.4339C62.4559 11.3738 62.4657 17.2457 62.492 23.1177C62.4933 23.4105 62.6377 23.7031 62.722 24.0613C62.7253 26.1926 62.722 28.2584 62.656 30.3701C62.5563 30.6944 62.4873 30.9728 62.487 31.2512C62.4771 40.2855 62.4739 49.3199 62.4696 58.3543Z" fill="#DDFE02"/>
<path d="M21.8185 5.79162C21.8185 5.79162 21.831 5.7718 21.9109 5.78523C22.2001 5.74474 22.4093 5.69081 22.6787 5.62771C23.462 5.52225 24.1847 5.3462 24.9083 5.34254C29.8949 5.31733 34.8818 5.3237 39.8685 5.33361C40.4142 5.33469 40.9656 5.38792 41.5037 5.47908C42.1916 5.5956 42.8687 5.77524 43.5504 5.92768C43.5504 5.92768 43.5923 5.93181 43.62 6.00175C43.8668 6.17024 44.0859 6.2688 44.305 6.36735C44.305 6.36735 44.3127 6.37462 44.3251 6.42469C44.4189 6.51281 44.5003 6.55086 44.5818 6.5889C44.5818 6.5889 44.5681 6.60357 44.585 6.64519C44.7134 6.7385 44.8249 6.79017 44.9365 6.84184C44.9365 6.84184 44.9504 6.849 44.9569 6.88864C44.9635 6.92828 45.0154 6.96896 45.0154 6.96896L45.0807 6.9583C45.0807 6.9583 45.136 6.97543 45.1396 7.02712C45.1431 7.07881 45.1818 7.11618 45.1818 7.11618L45.2318 7.09578C45.2318 7.09578 45.2845 7.11166 45.2951 7.18148C45.381 7.2941 45.4563 7.33692 45.5315 7.37974C45.5829 7.38907 45.6231 7.41531 45.6711 7.53793C45.7585 7.66033 45.8269 7.70324 45.8954 7.74616C45.8954 7.74616 45.942 7.76642 45.9395 7.81829C45.9371 7.87016 45.9761 7.9126 45.9761 7.9126L46.0328 7.90035C46.0328 7.90035 46.0749 7.91152 46.067 7.98535C46.196 8.19909 46.333 8.33901 46.47 8.47893C46.47 8.47893 46.4592 8.48261 46.4615 8.53461C46.5872 8.74259 46.7106 8.89856 46.834 9.05455C46.834 9.05455 46.8244 9.07005 46.832 9.10715C46.874 9.18439 46.9084 9.22453 46.9428 9.26468C46.9428 9.26468 46.9331 9.26649 46.9333 9.32537C47.2325 10.2373 47.5315 11.0904 47.8305 11.9435C47.8437 12.0104 47.8569 12.0773 47.8302 12.25C47.7672 14.1109 47.7442 15.8659 47.6478 17.61C45.4135 17.6439 43.2524 17.6888 41.0516 17.7488C40.936 17.8013 40.8603 17.8389 40.7709 17.8049C40.7529 16.6177 40.7676 15.5015 40.7398 14.3864C40.6962 12.6359 39.8075 11.5846 38.0681 11.1749C37.8766 11.0789 37.7295 11.0008 37.5822 11.0005C34.2553 10.9931 30.9284 10.9897 27.6017 11.0057C27.4084 11.0066 27.2159 11.1782 26.966 11.2913C25.1596 11.73 24.3753 12.6822 24.3431 14.4529C24.3241 15.496 24.3267 16.5394 24.2908 17.5861C24.2619 17.5896 24.2043 17.5982 24.1685 17.6087C24.0871 17.6426 24.0526 17.6768 23.9561 17.7211C21.7163 17.7218 19.5494 17.7233 17.3382 17.7233C17.2351 17.7206 17.1761 17.7194 17.112 17.6701C17.1076 17.5575 17.1085 17.4931 17.1424 17.3724C17.1943 17.1098 17.2182 16.9037 17.2314 16.697C17.3398 14.987 17.4394 13.2764 17.5631 11.5676C17.5765 11.3835 17.682 11.1559 17.8219 11.0404C18.2637 10.6755 18.755 10.3701 19.2041 10.0132C20.5375 8.95323 21.3687 7.60421 21.5534 5.89561C21.5534 5.89561 21.5698 5.87827 21.6255 5.88635C21.727 5.86016 21.7727 5.82589 21.8185 5.79162Z" fill="#DDFE02"/>
<path d="M24.2043 17.5982C24.2043 17.5982 24.2619 17.5896 24.3066 17.6571C24.3511 26.9182 24.351 36.1118 24.3507 45.3054C24.3506 46.8202 24.3272 48.3354 24.3556 49.8497C24.3855 51.4376 25.4571 52.6495 26.9531 52.6662C30.6114 52.7071 34.2708 52.6984 37.9293 52.6632C39.1323 52.6517 40.0566 52.0571 40.5019 50.9196C40.6868 50.4474 40.6912 49.9057 40.82 49.3936C40.8901 49.3864 40.9178 49.381 41.0185 49.3808C43.297 49.381 45.5026 49.3762 47.7485 49.3777C47.8158 49.3862 47.8429 49.3885 47.8699 49.3908C48.1126 52.049 47.4092 54.3935 45.5255 56.3459C44.2174 57.7018 42.6032 58.4295 40.6198 58.5947C40.3729 58.5291 40.2439 58.4931 40.1149 58.493C34.9041 58.4908 29.6934 58.4904 24.4826 58.4978C24.2817 58.4981 24.0809 58.5769 23.8801 58.6192C20.8023 58.4615 17.9036 55.9062 17.2681 52.6518C17.0309 51.4374 17.0607 50.1716 17.0178 48.9016C17.1262 49.0418 17.1855 49.2095 17.3176 49.3826C19.6012 49.3861 21.8121 49.3844 24.0703 49.3382C24.1431 48.9848 24.1905 48.676 24.1907 48.3671C24.198 38.1108 24.2008 27.8545 24.2043 17.5982Z" fill="#DDFE02"/>
<path d="M79.794 78.9633C79.8005 76.384 79.8071 73.8048 79.8156 71.1499C79.8897 71.2498 80.0246 71.4253 80.0247 71.6009C80.0264 75.2034 80.0131 78.8058 80.0004 82.4083C80.0002 82.482 79.9731 82.5556 79.9502 82.6719C79.7742 82.6869 79.5975 82.7151 79.4208 82.7151C53.0577 82.7161 26.6946 82.715 0.259771 82.6593C0.188081 82.6044 0.194705 82.5277 0.267786 82.5336C0.47246 82.5419 0.604058 82.5468 0.735653 82.5468C26.7462 82.546 52.7568 82.5449 78.7674 82.5438C78.82 82.5438 78.8733 82.5385 78.9253 82.5442C79.5574 82.6141 79.8446 82.3732 79.8134 81.7055C79.7708 80.7931 79.7972 79.8775 79.794 78.9633Z" fill="#DDFE02"/>
<path d="M21.5023 5.91074C21.3686 7.6042 20.5374 8.95322 19.204 10.0131C18.7549 10.3701 18.2636 10.6755 17.8218 11.0404C17.6819 11.1559 17.5764 11.3835 17.5631 11.5676C17.4393 13.2764 17.3397 14.987 17.2313 16.697C17.2182 16.9037 17.1942 17.1098 17.1182 17.3608C17.0611 17.4054 17.0077 17.4037 17.0077 17.4037C17.0553 15.5896 17.0031 13.7662 17.1737 11.9635C17.4366 9.18389 19.0101 7.23082 21.5023 5.91074Z" fill="#DDFE02"/>
<path d="M17.2447 49.3772C17.1854 49.2095 17.1262 49.0418 17.0416 48.8344C17.0033 45.453 16.9812 42.1113 16.9794 38.7697C16.9766 33.4687 16.9873 28.1677 17.0335 22.7373C17.0889 20.9779 17.103 19.3481 17.1172 17.7182C17.1761 17.7194 17.235 17.7206 17.3153 17.7852C17.3037 18.105 17.242 18.3614 17.242 18.6178C17.2394 28.8709 17.2424 39.1241 17.2447 49.3772Z" fill="#DDFE02"/>
<path d="M43.5118 5.88408C42.8686 5.77525 42.1916 5.59562 41.5037 5.47909C40.9656 5.38793 40.4141 5.33471 39.8685 5.33362C34.8817 5.32371 29.8949 5.31735 24.9082 5.34256C24.1847 5.34622 23.462 5.52227 22.6556 5.6028C22.5341 5.56223 22.4961 5.53715 22.4581 5.51181C23.3548 5.36463 24.2504 5.0979 25.1482 5.09012C30.089 5.04736 35.0312 5.01976 39.9709 5.10207C41.1422 5.12159 42.306 5.58256 43.5118 5.88408Z" fill="#DDFE02"/>
<path d="M37.2151 62.8433C36.963 62.9153 36.6421 63.0984 36.3208 63.099C27.3799 63.1157 18.4389 63.1235 9.49798 63.099C8.67484 63.0967 8.05621 63.2761 7.49517 63.9046C6.863 64.6127 6.11325 65.2176 5.36011 65.8448C6.14294 64.9275 6.95746 64.0097 7.83499 63.1556C8.03453 62.9614 8.45221 62.9228 8.76965 62.9223C17.31 62.9097 25.8505 62.9128 34.3909 62.9091C35.3093 62.9086 36.2277 62.8832 37.2151 62.8433Z" fill="#DDFE02"/>
<path d="M47.8842 49.3193C47.8429 49.3885 47.8159 49.3862 47.7523 49.307C47.7204 38.7244 47.7249 28.2187 47.766 17.7664C47.8265 18.3953 47.8505 18.9708 47.8745 19.5462C47.8819 25.5281 47.8908 31.5101 47.8961 37.492C47.8996 41.4106 47.8979 45.3292 47.8842 49.3193Z" fill="#DDFE02"/>
<path d="M71.877 63.0526C62.3808 63.1116 52.8479 63.1129 43.3151 63.1091C42.9782 63.109 42.6414 63.0588 42.2588 62.9853C45.7595 62.9256 49.306 62.9028 52.8525 62.9017C58.8971 62.8998 64.9417 62.9105 70.9863 62.9207C71.271 62.9212 71.5556 62.9685 71.877 63.0526Z" fill="#DDFE02"/>
<path d="M23.9518 58.6346C24.0809 58.5769 24.2817 58.4981 24.4826 58.4978C29.6933 58.4904 34.9041 58.4908 40.1148 58.493C40.2438 58.4931 40.3728 58.5291 40.5541 58.5858C37.922 58.6383 35.2377 58.6618 32.5533 58.6658C29.7101 58.6702 26.8668 58.656 23.9518 58.6346Z" fill="#DDFE02"/>
<path d="M0.194732 82.5278C0.194732 82.5278 0.188108 82.6045 0.187414 82.6429C0.123059 82.4565 0.004483 82.2317 0.00397431 82.0066C-0.00372749 78.6016 -0.000796246 75.1965 0.0177194 71.7915C0.019156 71.5277 0.155481 71.2647 0.285478 70.971C0.295523 73.5631 0.249197 76.1857 0.200207 78.954C0.196605 80.2425 0.19567 81.3851 0.194732 82.5278Z" fill="#DDFE02"/>
<path d="M5.23919 65.864C5.27774 65.989 5.33093 66.1956 5.25385 66.2709C3.813 67.6771 2.35668 69.0678 0.84729 70.4629C2.25839 68.9375 3.72579 67.411 5.23919 65.864Z" fill="#DDFE02"/>
<path d="M47.889 19.4912C47.8504 18.9707 47.8265 18.3953 47.7637 17.7435C47.7249 17.6672 47.7211 17.621 47.7211 17.621C47.7441 15.8659 47.7672 14.1109 47.8245 12.3011C47.8736 14.643 47.8886 17.0396 47.889 19.4912Z" fill="#DDFE02"/>
<path d="M17.1119 17.6701C17.1031 19.3481 17.0889 20.9779 17.0488 22.6634C17.0041 20.9953 16.9855 19.2715 16.9873 17.4758C17.0077 17.4037 17.0611 17.4054 17.0852 17.417C17.1085 17.4931 17.1076 17.5575 17.1119 17.6701Z" fill="#DDFE02"/>
<path d="M47.8397 11.8805C47.5316 11.0904 47.2325 10.2373 46.9371 9.32227C47.2434 10.1127 47.5461 10.9651 47.8397 11.8805Z" fill="#DDFE02"/>
<path d="M44.2742 6.32767C44.0859 6.26882 43.8668 6.17026 43.6318 6.01901C43.8252 6.07353 44.0343 6.18074 44.2742 6.32767Z" fill="#DDFE02"/>
<path d="M22.402 5.5152C22.4961 5.53715 22.5342 5.56223 22.5955 5.61197C22.4093 5.69083 22.2001 5.74476 21.9226 5.78641C22.0182 5.68895 22.182 5.60377 22.402 5.5152Z" fill="#DDFE02"/>
<path d="M46.4634 8.43158C46.333 8.33902 46.196 8.1991 46.0736 8.00598C46.2111 8.0966 46.3339 8.24041 46.4634 8.43158Z" fill="#DDFE02"/>
<path d="M46.8245 9.00518C46.7105 8.89856 46.5871 8.74259 46.4657 8.53085C46.5835 8.63534 46.6993 8.79558 46.8245 9.00518Z" fill="#DDFE02"/>
<path d="M74.1145 65.2538C73.9702 65.1807 73.8105 65.0606 73.6516 64.8821C73.8013 64.9514 73.9502 65.0791 74.1145 65.2538Z" fill="#DDFE02"/>
<path d="M44.9142 6.80182C44.825 6.79018 44.7134 6.73851 44.5898 6.63647C44.6825 6.64467 44.7872 6.70323 44.9142 6.80182Z" fill="#DDFE02"/>
<path d="M76.2184 67.4059C76.127 67.3751 76.0187 67.3015 75.9227 67.1706C76.0239 67.1967 76.1128 67.2799 76.2184 67.4059Z" fill="#DDFE02"/>
<path d="M75.3659 66.52C75.2812 66.4911 75.1817 66.4182 75.0736 66.2962C75.1604 66.3235 75.2558 66.3997 75.3659 66.52Z" fill="#DDFE02"/>
<path d="M75.0525 66.2046C74.9661 66.1748 74.8649 66.1001 74.7551 65.9751C74.8436 66.003 74.9406 66.0814 75.0525 66.2046Z" fill="#DDFE02"/>
<path d="M75.6745 66.8375C75.5924 66.8071 75.4946 66.7335 75.3884 66.6116C75.473 66.6403 75.566 66.7173 75.6745 66.8375Z" fill="#DDFE02"/>
<path d="M75.9189 67.0824C75.8637 67.0744 75.7882 67.0267 75.7026 66.9312C75.7613 66.9364 75.8299 66.9896 75.9189 67.0824Z" fill="#DDFE02"/>
<path d="M45.8791 7.70909C45.827 7.70325 45.7585 7.66034 45.684 7.57227C45.7395 7.57541 45.8011 7.62372 45.8791 7.70909Z" fill="#DDFE02"/>
<path d="M45.5198 7.34028C45.4563 7.33692 45.381 7.29411 45.3073 7.20599C45.3752 7.2074 45.4417 7.25411 45.5198 7.34028Z" fill="#DDFE02"/>
<path d="M44.5635 6.54937C44.5003 6.55086 44.4189 6.51282 44.3286 6.42863C44.3949 6.42493 44.4701 6.46737 44.5635 6.54937Z" fill="#DDFE02"/>
<path d="M51.9923 12.1518C52.0588 12.1438 52.1491 12.1768 52.2583 12.2563C52.1902 12.2662 52.1031 12.2295 51.9923 12.1518Z" fill="#DDFE02"/>
<path d="M79.503 70.737C79.4686 70.7466 79.422 70.7135 79.3604 70.6394C79.3938 70.6304 79.4422 70.6624 79.503 70.737Z" fill="#DDFE02"/>
<path d="M0.456294 70.7865C0.469053 70.8205 0.438417 70.865 0.3717 70.9294C0.36138 70.8985 0.387139 70.8478 0.456294 70.7865Z" fill="#DDFE02"/>
<path d="M0.613502 70.6279C0.624979 70.6614 0.592742 70.7062 0.523337 70.7707C0.514042 70.74 0.541916 70.6896 0.613502 70.6279Z" fill="#DDFE02"/>
<path d="M0.766671 70.4629C0.779437 70.4971 0.748273 70.5444 0.679157 70.6124C0.668382 70.5807 0.695564 70.5283 0.766671 70.4629Z" fill="#DDFE02"/>
<path d="M78.4484 69.6378C78.4133 69.648 78.354 69.6113 78.2731 69.526C78.309 69.5153 78.3666 69.5531 78.4484 69.6378Z" fill="#DDFE02"/>
<path d="M79.665 70.8978C79.6319 70.9087 79.5846 70.8781 79.5206 70.8078C79.5529 70.7975 79.6018 70.8269 79.665 70.8978Z" fill="#DDFE02"/>
<path d="M45.0706 6.93153C45.0808 6.95833 45.0155 6.96899 45.0155 6.96899C45.0155 6.96899 44.9636 6.92831 44.9607 6.89549C45.0001 6.85722 45.0343 6.87123 45.0706 6.93153Z" fill="#DDFE02"/>
<path d="M73.174 64.322C73.1419 64.3319 73.0977 64.3003 73.0348 64.2318C73.0647 64.2235 73.1132 64.252 73.174 64.322Z" fill="#DDFE02"/>
<path d="M73.0159 64.1652C72.984 64.1745 72.94 64.1419 72.8773 64.0722C72.9071 64.0645 72.9554 64.0939 73.0159 64.1652Z" fill="#DDFE02"/>
<path d="M72.8622 64.0063C72.8281 64.0179 72.7831 63.9863 72.7191 63.9177C72.7505 63.9082 72.801 63.9357 72.8622 64.0063Z" fill="#DDFE02"/>
<path d="M72.7002 63.8523C72.6688 63.8619 72.6243 63.8306 72.5607 63.7626C72.5901 63.7544 72.6386 63.7828 72.7002 63.8523Z" fill="#DDFE02"/>
<path d="M72.5408 63.6955C72.5088 63.7054 72.465 63.6735 72.4026 63.6051C72.4323 63.597 72.4807 63.6255 72.5408 63.6955Z" fill="#DDFE02"/>
<path d="M72.3829 63.5381C72.3508 63.547 72.3058 63.5139 72.2422 63.4425C72.2724 63.4349 72.3212 63.4655 72.3829 63.5381Z" fill="#DDFE02"/>
<path d="M72.0681 63.2297C72.0386 63.2391 71.9934 63.2085 71.9277 63.1419C71.9557 63.1338 72.004 63.1618 72.0681 63.2297Z" fill="#DDFE02"/>
<path d="M73.3356 64.4815C73.3045 64.4911 73.2586 64.4592 73.1934 64.3895C73.2229 64.3812 73.2719 64.4106 73.3356 64.4815Z" fill="#DDFE02"/>
<path d="M45.2315 7.07703C45.2334 7.09683 45.1824 7.11763 45.1824 7.11763C45.1824 7.11763 45.1429 7.07952 45.1517 7.05339C45.1604 7.02726 45.2296 7.05723 45.2315 7.07703Z" fill="#DDFE02"/>
<path d="M46.0335 7.87886C46.0345 7.90185 45.9767 7.91435 45.9767 7.91435C45.9767 7.91435 45.9369 7.87106 45.9461 7.84304C45.9906 7.81057 46.0164 7.82418 46.0335 7.87886Z" fill="#DDFE02"/>
<path d="M46.9427 9.22385C46.9084 9.22455 46.874 9.18441 46.8406 9.10386C46.8752 9.1033 46.9089 9.14315 46.9427 9.22385Z" fill="#DDFE02"/>
<path d="M78.1178 69.2972C78.0817 69.3106 78.0278 69.2814 77.959 69.2072C77.996 69.193 78.048 69.2238 78.1178 69.2972Z" fill="#DDFE02"/>
<path d="M77.9585 69.1467C77.9215 69.1579 77.8693 69.1255 77.8051 69.047C77.8431 69.0349 77.8932 69.0689 77.9585 69.1467Z" fill="#DDFE02"/>
<path d="M77.8031 68.9844C77.7668 68.9967 77.7134 68.9665 77.6467 68.8905C77.6843 68.8771 77.7351 68.9095 77.8031 68.9844Z" fill="#DDFE02"/>
<path d="M77.646 68.8288C77.609 68.8401 77.5565 68.8085 77.4934 68.7306C77.532 68.7181 77.5812 68.7521 77.646 68.8288Z" fill="#DDFE02"/>
<path d="M77.4889 68.666C77.4534 68.6785 77.3995 68.6498 77.3331 68.5752C77.3706 68.5612 77.4206 68.593 77.4889 68.666Z" fill="#DDFE02"/>
<path d="M77.3297 68.5126C77.2937 68.5246 77.2404 68.4947 77.1749 68.4189C77.2126 68.4055 77.2625 68.4381 77.3297 68.5126Z" fill="#DDFE02"/>
<path d="M77.1697 68.3554C77.1342 68.3691 77.08 68.341 77.0101 68.2683C77.0466 68.2536 77.0989 68.2836 77.1697 68.3554Z" fill="#DDFE02"/>
<path d="M77.008 68.2081C76.9717 68.2192 76.9199 68.1869 76.8552 68.1091C76.8924 68.0974 76.9424 68.1311 77.008 68.2081Z" fill="#DDFE02"/>
<path d="M76.8524 68.0464C76.8162 68.0587 76.7632 68.0283 76.6965 67.9526C76.7337 67.9394 76.7846 67.9715 76.8524 68.0464Z" fill="#DDFE02"/>
<path d="M78.2741 69.4604C78.2371 69.4717 78.185 69.4392 78.1212 69.3607C78.1593 69.3488 78.2092 69.3828 78.2741 69.4604Z" fill="#DDFE02"/>
<path d="M76.694 67.8909C76.6578 67.9029 76.605 67.8719 76.5387 67.7956C76.576 67.7828 76.6267 67.8154 76.694 67.8909Z" fill="#DDFE02"/>
<path d="M76.5369 67.7337C76.5003 67.7459 76.4475 67.7149 76.3813 67.6384C76.4189 67.6254 76.4698 67.658 76.5369 67.7337Z" fill="#DDFE02"/>
<path d="M76.3803 67.5765C76.3435 67.5882 76.2911 67.5568 76.2269 67.4796C76.265 67.4671 76.3149 67.5003 76.3803 67.5765Z" fill="#DDFE02"/>
<path d="M21.7762 5.79056C21.7727 5.82588 21.7269 5.86015 21.6375 5.88568C21.6405 5.8478 21.6872 5.81866 21.7762 5.79056Z" fill="#DDFE02"/>
<path d="M74.5897 65.7391C74.5602 65.7468 74.5165 65.7141 74.4529 65.6454C74.4804 65.6392 74.528 65.669 74.5897 65.7391Z" fill="#DDFE02"/>
<path d="M74.2783 65.4245C74.2483 65.4329 74.2036 65.401 74.1403 65.3319C74.1689 65.3245 74.2163 65.3544 74.2783 65.4245Z" fill="#DDFE02"/>
<path d="M73.6469 64.7918C73.6148 64.8004 73.5697 64.7668 73.5063 64.6946C73.5367 64.6872 73.5854 64.7183 73.6469 64.7918Z" fill="#DDFE02"/>
<path d="M0.267775 82.5336C0.195631 81.3851 0.196567 80.2425 0.205814 79.0281C2.39086 78.953 4.56759 78.948 6.74433 78.9467C10.1434 78.9447 13.5424 78.9453 17.0895 78.9447C19.099 78.9958 20.9602 79.0731 22.8219 79.0881C23.8608 79.0964 24.9005 79.0013 25.9399 78.9527C38.2243 78.9505 50.5087 78.9352 62.7931 78.9531C67.1809 78.9595 71.5685 79.0595 75.9564 79.0876C77.1871 79.0955 78.4185 78.9993 79.7218 78.9571C79.7972 79.8775 79.7708 80.7931 79.8134 81.7055C79.8446 82.3732 79.5574 82.6141 78.9252 82.5442C78.8732 82.5385 78.82 82.5438 78.7674 82.5438C52.7568 82.5449 26.7462 82.546 0.735642 82.5468C0.604047 82.5468 0.472449 82.542 0.267775 82.5336Z" fill="#DDFE02"/>
<path d="M14.4154 78.1255C14.4154 78.1255 14.4128 78.0658 14.4163 77.9642C14.4093 74.1988 14.3987 70.5348 14.4026 66.8424C14.4171 66.8139 14.4259 66.7506 14.4975 66.7484C15.1966 66.7447 15.824 66.7433 16.4513 66.7418C16.4513 66.7418 16.4482 66.728 16.4642 66.7708C16.5763 66.8885 16.6724 66.9633 16.7685 67.0381C16.7685 67.0381 16.7739 67.0307 16.7772 67.0744C16.8262 67.1499 16.8719 67.1817 16.9176 67.2135C16.9176 67.2135 16.9198 67.1986 16.9226 67.2413C16.9711 67.3174 17.0168 67.3508 17.0626 67.3842C17.0626 67.3842 17.0658 67.3668 17.067 67.4097C17.1122 67.4867 17.1562 67.5208 17.2003 67.555C17.2003 67.555 17.2075 67.5377 17.2079 67.5793C17.2324 67.6698 17.2699 67.7044 17.321 67.7245C17.321 67.7245 17.359 67.7127 17.36 67.7636C17.425 67.8717 17.4889 67.929 17.5527 67.9862C17.5527 67.9862 17.5586 67.9756 17.5614 68.0186C17.6091 68.0956 17.6539 68.1296 17.6986 68.1635C17.6986 68.1635 17.7013 68.1501 17.7088 68.2009C17.925 68.4762 18.1338 68.7006 18.3425 68.925C18.3425 68.925 18.3499 68.9151 18.3515 68.9589C18.3986 69.0362 18.444 69.0697 18.4895 69.1033C18.4895 69.1033 18.4916 69.0898 18.4969 69.1374C18.6297 69.3233 18.7572 69.4615 18.8846 69.5997C18.8846 69.5997 18.8909 69.6189 18.918 69.6629C19.0071 69.761 19.0691 69.815 19.1311 69.869C19.1311 69.869 19.1367 69.8579 19.1399 69.9009C19.1892 69.9765 19.2353 70.0093 19.2814 70.0421C19.2814 70.0421 19.2834 70.029 19.2924 70.079C19.5094 70.3537 19.7175 70.5784 19.9255 70.803C19.9255 70.803 19.9318 70.7937 19.9354 70.8371C19.9851 70.9121 20.0311 70.9439 20.0771 70.9756C20.0771 70.9756 20.0795 70.9626 20.0884 71.0149C20.4005 71.4042 20.7039 71.7412 21.0072 72.0781C21.0072 72.0781 21.0344 72.0477 21.0312 72.1077C21.156 72.3045 21.2839 72.4413 21.4119 72.5781C21.4119 72.5781 21.4213 72.6078 21.4606 72.6531C21.6304 72.8063 21.7609 72.9141 22.013 73.1223C22.013 70.8941 22.013 68.8147 22.013 66.7352C22.2264 66.7317 22.4398 66.7283 22.7675 66.7246C22.9517 66.7158 23.0215 66.7073 23.0914 66.6988C23.3638 66.7078 23.6361 66.7167 24.0306 66.726C24.2663 66.7271 24.3799 66.7279 24.52 66.7974C24.5307 70.6273 24.515 74.3885 24.5043 78.1538C24.5094 78.158 24.5062 78.1453 24.434 78.1421C23.678 78.0938 22.9942 78.0486 22.3099 77.9998C22.3094 77.9961 22.3021 77.9952 22.2889 77.9513C22.1841 77.8298 22.0925 77.7521 21.9943 77.6803C21.9876 77.6862 22.0035 77.6781 21.9908 77.6322C21.8866 77.5019 21.795 77.4173 21.7011 77.3401C21.6988 77.3474 21.7138 77.3433 21.7017 77.2994C21.6068 77.1686 21.5239 77.0816 21.437 76.9872C21.4329 76.9799 21.4184 76.9712 21.4131 76.9429C21.3884 76.8776 21.358 76.8555 21.3141 76.8292C21.3114 76.81 21.2761 76.7937 21.2557 76.7505C21.0832 76.5445 20.9312 76.3817 20.7631 76.2398C20.7471 76.2607 20.7847 76.2237 20.7725 76.1807C20.6975 76.0788 20.6347 76.0198 20.5689 75.9625C20.566 75.9643 20.5703 75.959 20.5624 75.9181C20.5102 75.8469 20.4659 75.8165 20.4169 75.7936C20.4123 75.8012 20.4274 75.7918 20.4125 75.742C20.1416 75.4129 19.8855 75.1336 19.624 74.8599C19.6186 74.8654 19.6325 74.8585 19.6212 74.8125C19.5198 74.6807 19.4296 74.595 19.3299 74.5218C19.3204 74.5343 19.3459 74.5157 19.3375 74.4766C19.2883 74.4057 19.2474 74.3739 19.1961 74.3469C19.1856 74.3518 19.1997 74.3336 19.1922 74.2997C19.1619 74.2222 19.1267 74.1936 19.0756 74.172C19.0723 74.1639 19.058 74.1535 19.0419 74.1147C18.9626 74.0244 18.8994 73.9728 18.8325 73.924C18.8287 73.9268 18.8346 73.9197 18.826 73.8789C18.7731 73.8079 18.7288 73.7776 18.6801 73.7555C18.6758 73.7635 18.6907 73.7529 18.6757 73.706C18.5203 73.5248 18.3799 73.3905 18.2198 73.2742C18.2002 73.2924 18.2423 73.2594 18.2328 73.2204C18.1828 73.1489 18.1422 73.1163 18.0688 73.1088C18.0577 73.1167 18.0794 73.0995 18.0849 73.0374C17.9557 72.8829 17.8427 72.7735 17.7256 72.6682C17.7216 72.6722 17.7316 72.6667 17.7225 72.6259C17.6672 72.5567 17.6209 72.5282 17.5708 72.5081C17.5669 72.5166 17.5776 72.5012 17.558 72.4477C17.4202 72.283 17.3021 72.1718 17.0528 71.9371C17.0528 74.1007 17.0528 76.0824 17.0528 78.1255C16.1227 78.1255 15.2691 78.1255 14.4154 78.1255Z" fill="black"/>
<path d="M60.8108 66.6944C63.9542 67.0583 66.0019 69.3257 65.9832 72.3472C65.9651 75.2445 63.7932 77.6409 60.8771 77.981C58.0601 78.3094 55.4505 76.4345 54.7508 73.5793C53.924 70.2053 56.6089 66.7513 60.107 66.6895C60.3173 66.6858 60.5276 66.6885 60.8108 66.6944ZM58.8771 69.6661C57.7485 70.3482 57.288 71.3839 57.3734 72.6474C57.4518 73.8083 58.0727 74.6592 59.1328 75.154C60.3033 75.7003 61.7485 75.2772 62.656 74.1622C63.5111 73.1115 63.5279 71.6223 62.6971 70.533C61.7769 69.3265 60.4138 68.9845 58.8771 69.6661Z" fill="black"/>
<path d="M44.0999 66.7041C44.1409 67.5198 44.1818 68.3355 44.2261 69.2192C42.1286 69.2192 40.1665 69.2192 38.1681 69.2192C38.1681 69.9246 38.1681 70.5651 38.1681 71.2842C39.5684 71.2842 40.9462 71.2842 42.3623 71.2842C42.3623 72.1332 42.3623 72.9043 42.3623 73.7427C40.9815 73.7427 39.6221 73.7427 38.2083 73.7427C38.2083 74.3702 38.2083 74.9318 38.2083 75.6084C40.1568 75.6084 42.1118 75.6084 44.1107 75.6084C44.1107 76.5144 44.1107 77.3067 44.1107 78.1391C41.2706 78.1391 38.4661 78.1391 35.5703 78.1391C35.5703 74.3716 35.5703 70.6215 35.6522 66.799C38.5227 66.7192 41.3113 66.7116 44.0999 66.7041Z" fill="black"/>
<path d="M25.9371 78.8927C24.9006 79.0013 23.8608 79.0964 22.8219 79.0881C20.9602 79.0731 19.0991 78.9958 17.1636 78.9437C17.0883 78.8214 17.0871 78.7 17.1116 78.4599C17.1733 78.034 17.2379 77.727 17.2405 77.4194C17.2523 76.0381 17.2296 74.6563 17.2619 73.2757C17.268 73.0153 17.4675 72.7593 17.5777 72.5013C17.5777 72.5013 17.5671 72.5166 17.5854 72.5455C17.6464 72.6051 17.6891 72.6359 17.7317 72.6667C17.7317 72.6667 17.7217 72.6722 17.7292 72.7209C17.8582 72.8739 17.9797 72.9781 18.1012 73.0824C18.0795 73.0995 18.0578 73.1167 18.0728 73.1506C18.1538 73.198 18.1981 73.2287 18.2424 73.2594C18.2424 73.2594 18.2003 73.2924 18.217 73.3301C18.3861 73.4962 18.5384 73.6245 18.6908 73.7529C18.6908 73.7529 18.6759 73.7636 18.6928 73.7935C18.7513 73.8556 18.793 73.8877 18.8347 73.9197C18.8347 73.9197 18.8288 73.9269 18.8374 73.9709C18.9167 74.0612 18.9874 74.1074 19.0581 74.1535C19.0581 74.1535 19.0724 74.1639 19.0733 74.211C19.0971 74.3142 19.139 74.3394 19.1999 74.3336C19.1999 74.3336 19.1858 74.3519 19.2003 74.3882C19.2586 74.4549 19.3023 74.4853 19.346 74.5157C19.346 74.5157 19.3205 74.5344 19.3376 74.57C19.4473 74.6899 19.54 74.7742 19.6326 74.8586C19.6326 74.8586 19.6187 74.8654 19.6273 74.9153C19.8997 75.2407 20.1636 75.5163 20.4275 75.7919C20.4275 75.7919 20.4124 75.8012 20.4289 75.8319C20.4871 75.8948 20.5287 75.9269 20.5704 75.959C20.5704 75.959 20.5661 75.9643 20.5731 76.01C20.6483 76.1118 20.7165 76.1677 20.7848 76.2237C20.7848 76.2237 20.7472 76.2607 20.7683 76.2931C20.9517 76.4816 21.114 76.6377 21.2763 76.7937C21.2763 76.7937 21.3115 76.8101 21.3057 76.8642C21.2999 76.9183 21.3462 76.9734 21.3462 76.9734L21.4186 76.9712C21.4186 76.9712 21.433 76.9799 21.4317 77.0374C21.5248 77.1777 21.6193 77.2605 21.7139 77.3434C21.7139 77.3434 21.6989 77.3474 21.7105 77.388C21.8159 77.5118 21.9097 77.5949 22.0036 77.6781C22.0036 77.6781 21.9877 77.6862 21.9987 77.7301C22.1072 77.8477 22.2047 77.9215 22.3022 77.9952C22.3022 77.9952 22.3095 77.9961 22.3184 78.0595C22.8309 78.6032 23.9439 78.6147 24.5063 78.1453C24.5063 78.1453 24.5095 78.158 24.5482 78.1441C24.6636 78.0842 24.7402 78.0383 24.8168 77.9924C25.1893 78.2725 25.5617 78.5526 25.9371 78.8927Z" fill="#DDFE02"/>
<path d="M24.8191 77.92C24.7401 78.0383 24.6635 78.0842 24.5431 78.1399C24.515 74.3885 24.5307 70.6273 24.5636 66.7885C24.6103 66.7077 24.6399 66.7047 24.6694 66.7016C24.7216 66.9756 24.8186 67.2494 24.8193 67.5235C24.8281 70.9648 24.823 74.4062 24.8191 77.92Z" fill="#DDFE02"/>
<path d="M17.5581 72.4477C17.4675 72.7593 17.268 73.0153 17.2619 73.2757C17.2296 74.6563 17.2523 76.0381 17.2405 77.4194C17.2379 77.727 17.1733 78.034 17.1095 78.3992C16.4322 78.4599 15.7819 78.4816 15.1335 78.4557C14.9003 78.4463 14.6718 78.3223 14.4283 78.1881C15.2692 78.1256 16.1229 78.1256 17.0529 78.1256C17.0529 76.0824 17.0529 74.1007 17.0529 71.9371C17.3022 72.1718 17.4203 72.283 17.5581 72.4477Z" fill="#DDFE02"/>
<path d="M14.3882 66.8709C14.3988 70.5348 14.4094 74.1988 14.4068 77.9359C14.3463 77.7074 14.2588 77.4058 14.2579 77.1039C14.2472 73.7442 14.2499 70.3845 14.2837 66.9496C14.3185 66.8743 14.3882 66.8709 14.3882 66.8709Z" fill="#DDFE02"/>
<path d="M44.0495 66.6633C41.3114 66.7116 38.5228 66.7192 35.6617 66.7267C35.6779 66.6773 35.7667 66.5845 35.8551 66.5847C38.5697 66.5917 41.2843 66.6078 44.0495 66.6633Z" fill="#DDFE02"/>
<path d="M21.9636 66.7768C22.0131 68.8147 22.0131 70.8941 22.0131 73.1223C21.761 72.9141 21.6305 72.8063 21.4756 72.658C21.5766 72.3343 21.8024 72.0538 21.8103 71.7674C21.848 70.3976 21.8218 69.0261 21.8302 67.6554C21.8319 67.3762 21.8848 67.0973 21.9636 66.7768Z" fill="#DDFE02"/>
<path d="M21.0158 72.0178C20.704 71.7412 20.4006 71.4042 20.082 71.0168C20.5764 71.1155 21.023 71.3247 21.0158 72.0178Z" fill="#DDFE02"/>
<path d="M16.4065 66.6947C15.824 66.7433 15.1966 66.7447 14.4931 66.7024C14.4163 66.628 14.4156 66.5972 14.4149 66.5665C15.0638 66.5935 15.7127 66.6205 16.4065 66.6947Z" fill="#DDFE02"/>
<path d="M18.3461 68.8665C18.1338 68.7006 17.9251 68.4762 17.702 68.2022C17.9084 68.3711 18.129 68.5895 18.3461 68.8665Z" fill="#DDFE02"/>
<path d="M19.9276 70.7447C19.7176 70.5784 19.5095 70.3537 19.2859 70.0801C19.49 70.2495 19.7098 70.468 19.9276 70.7447Z" fill="#DDFE02"/>
<path d="M24.6432 66.6591C24.6399 66.7047 24.6104 66.7077 24.5372 66.7197C24.38 66.7279 24.2664 66.7271 24.0977 66.7128C24.234 66.6717 24.4254 66.6441 24.6432 66.6591Z" fill="#DDFE02"/>
<path d="M18.9051 69.5452C18.7573 69.4615 18.6299 69.3232 18.4904 69.1389C18.6274 69.2254 18.7765 69.3581 18.9051 69.5452Z" fill="#DDFE02"/>
<path d="M21.432 72.5234C21.284 72.4413 21.1561 72.3045 21.0164 72.1217C21.1537 72.2066 21.3028 72.3377 21.432 72.5234Z" fill="#DDFE02"/>
<path d="M23.0832 66.657C23.0216 66.7073 22.9518 66.7158 22.8303 66.7115C22.8775 66.6709 22.9762 66.6431 23.0832 66.657Z" fill="#DDFE02"/>
<path d="M14.3742 66.5684C14.4156 66.5972 14.4163 66.628 14.4214 66.7047C14.4259 66.7506 14.4171 66.8139 14.4026 66.8424C14.3881 66.8709 14.3184 66.8743 14.2836 66.8764C14.2771 66.7758 14.3053 66.6731 14.3742 66.5684Z" fill="#DDFE02"/>
<path d="M16.7624 66.9866C16.6726 66.9633 16.5765 66.8885 16.4578 66.7734C16.5422 66.8005 16.6492 66.8678 16.7624 66.9866Z" fill="#DDFE02"/>
<path d="M19.1281 69.8199C19.0692 69.815 19.0071 69.761 18.9263 69.6688C18.98 69.6774 19.0525 69.7241 19.1281 69.8199Z" fill="#DDFE02"/>
<path d="M17.549 67.9365C17.4889 67.929 17.4251 67.8717 17.3431 67.7739C17.3985 67.7845 17.4718 67.8357 17.549 67.9365Z" fill="#DDFE02"/>
<path d="M20.064 70.9361C20.0312 70.9439 19.9852 70.9121 19.9301 70.8383C19.9642 70.8296 20.0074 70.8631 20.064 70.9361Z" fill="#DDFE02"/>
<path d="M19.269 70.0015C19.2354 70.0093 19.1893 69.9765 19.1338 69.9012C19.1684 69.8927 19.2125 69.9268 19.269 70.0015Z" fill="#DDFE02"/>
<path d="M16.9053 67.174C16.8721 67.1817 16.8264 67.1499 16.7729 67.0757C16.8078 67.067 16.8503 67.1008 16.9053 67.174Z" fill="#DDFE02"/>
<path d="M17.6875 68.1226C17.6541 68.1296 17.6093 68.0956 17.5555 68.019C17.5898 68.0115 17.633 68.0466 17.6875 68.1226Z" fill="#DDFE02"/>
<path d="M18.4785 69.0623C18.4441 69.0698 18.3987 69.0362 18.3455 68.9596C18.3809 68.9514 18.4241 68.9864 18.4785 69.0623Z" fill="#DDFE02"/>
<path d="M17.3226 67.6817C17.2701 67.7044 17.2325 67.6698 17.1993 67.5829C17.2349 67.5763 17.2795 67.6076 17.3226 67.6817Z" fill="#DDFE02"/>
<path d="M17.1932 67.5118C17.1564 67.5208 17.1123 67.4867 17.0582 67.4106C17.0941 67.4019 17.14 67.4353 17.1932 67.5118Z" fill="#DDFE02"/>
<path d="M17.0513 67.3426C17.0169 67.3508 16.9711 67.3174 16.915 67.2414C16.9498 67.2329 16.9948 67.2669 17.0513 67.3426Z" fill="#DDFE02"/>
<path d="M17.3176 49.3826C17.2425 39.1241 17.2395 28.8709 17.242 18.6178C17.2421 18.3614 17.3038 18.105 17.3596 17.7867C19.5494 17.7233 21.7163 17.7218 23.9565 17.7958C24.0274 28.3751 24.0252 38.8789 24.023 49.3827C21.8121 49.3844 19.6012 49.3861 17.3176 49.3826Z" fill="#DDFE02"/>
<path d="M47.6478 17.61C47.7211 17.621 47.7249 17.6672 47.7271 17.6901C47.7248 28.2187 47.7203 38.7244 47.7121 49.3007C45.5027 49.3762 43.2971 49.381 41.0163 49.3096C40.9912 38.7335 41.0413 28.2336 41.0913 17.7338C43.2524 17.6888 45.4135 17.6439 47.6478 17.61Z" fill="#DDFE02"/>
<path d="M41.0516 17.7488C41.0413 28.2336 40.9913 38.7335 40.9434 49.3046C40.9178 49.3811 40.8901 49.3864 40.82 49.3937C40.7685 48.9009 40.7514 48.4061 40.7514 47.9114C40.751 37.9487 40.7525 27.9861 40.7691 17.95C40.8603 17.8389 40.9361 17.8014 41.0516 17.7488Z" fill="#DDFE02"/>
<path d="M24.0704 49.3382C24.0253 38.8789 24.0275 28.3751 24.0293 17.7966C24.0527 17.6769 24.0872 17.6426 24.1685 17.6087C24.2009 27.8545 24.1981 38.1108 24.1908 48.3671C24.1906 48.676 24.1432 48.9849 24.0704 49.3382Z" fill="#DDFE02"/>
<path d="M38.0682 11.1749C37.2963 11.2312 36.4802 11.2333 35.5888 11.2025C35.4818 11.1583 35.4532 11.164 35.4278 11.1866C32.676 11.2185 29.9241 11.2505 27.0977 11.2765C27.216 11.1783 27.4084 11.0066 27.6017 11.0057C30.9285 10.9897 34.2554 10.9932 37.5822 11.0005C37.7295 11.0009 37.8766 11.0789 38.0682 11.1749Z" fill="#DDFE02"/>
<path d="M24.4342 78.1421C23.9439 78.6147 22.8309 78.6032 22.319 78.0631C22.9944 78.0486 23.6782 78.0937 24.4342 78.1421Z" fill="#DDFE02"/>
<path d="M20.4127 75.7421C20.1636 75.5163 19.8997 75.2408 19.6327 74.9098C19.8856 75.1337 20.1417 75.413 20.4127 75.7421Z" fill="#DDFE02"/>
<path d="M18.6759 73.706C18.5385 73.6245 18.3861 73.4962 18.2367 73.312C18.3801 73.3905 18.5205 73.5248 18.6759 73.706Z" fill="#DDFE02"/>
<path d="M21.2557 76.7505C21.1139 76.6377 20.9517 76.4816 20.7843 76.2722C20.9312 76.3817 21.0833 76.5445 21.2557 76.7505Z" fill="#DDFE02"/>
<path d="M18.085 73.0374C17.9797 72.9781 17.8582 72.8739 17.7333 72.7169C17.8428 72.7735 17.9558 72.8829 18.085 73.0374Z" fill="#DDFE02"/>
<path d="M19.6213 74.8125C19.54 74.7742 19.4474 74.6899 19.3472 74.5574C19.4297 74.595 19.5199 74.6807 19.6213 74.8125Z" fill="#DDFE02"/>
<path d="M21.7018 77.2995C21.6193 77.2605 21.5248 77.1777 21.4357 77.0447C21.524 77.0816 21.6069 77.1686 21.7018 77.2995Z" fill="#DDFE02"/>
<path d="M21.9909 77.6322C21.9097 77.5949 21.8158 77.5118 21.7128 77.3807C21.7951 77.4173 21.8867 77.5019 21.9909 77.6322Z" fill="#DDFE02"/>
<path d="M22.2889 77.9513C22.2047 77.9214 22.1072 77.8477 22.0054 77.7242C22.0926 77.7521 22.1842 77.8298 22.2889 77.9513Z" fill="#DDFE02"/>
<path d="M19.0419 74.1147C18.9874 74.1074 18.9167 74.0612 18.8412 73.9681C18.8995 73.9728 18.9627 74.0244 19.0419 74.1147Z" fill="#DDFE02"/>
<path d="M20.7727 76.1807C20.7166 76.1677 20.6483 76.1118 20.576 76.0083C20.6349 76.0198 20.6977 76.0788 20.7727 76.1807Z" fill="#DDFE02"/>
<path d="M17.7227 72.6259C17.6891 72.6359 17.6464 72.6051 17.5892 72.537C17.621 72.5282 17.6673 72.5566 17.7227 72.6259Z" fill="#DDFE02"/>
<path d="M18.2328 73.2204C18.198 73.2287 18.1537 73.198 18.1055 73.1255C18.1422 73.1163 18.1828 73.1489 18.2328 73.2204Z" fill="#DDFE02"/>
<path d="M18.8262 73.8789C18.7931 73.8876 18.7514 73.8556 18.6971 73.7854C18.7289 73.7776 18.7733 73.8079 18.8262 73.8789Z" fill="#DDFE02"/>
<path d="M21.4131 76.9429C21.4184 76.9712 21.3461 76.9734 21.3461 76.9734C21.3461 76.9734 21.2998 76.9183 21.3083 76.8833C21.358 76.8555 21.3884 76.8776 21.4131 76.9429Z" fill="#DDFE02"/>
<path d="M20.5626 75.9181C20.5288 75.9269 20.4871 75.8948 20.4336 75.8244C20.466 75.8165 20.5104 75.8469 20.5626 75.9181Z" fill="#DDFE02"/>
<path d="M19.3376 74.4766C19.3023 74.4853 19.2586 74.4549 19.2108 74.3833C19.2476 74.3739 19.2884 74.4057 19.3376 74.4766Z" fill="#DDFE02"/>
<path d="M19.1924 74.2998C19.1391 74.3394 19.0971 74.3142 19.0767 74.2191C19.1268 74.1936 19.1621 74.2222 19.1924 74.2998Z" fill="#DDFE02"/>
<path d="M58.9262 69.6326C60.4138 68.9844 61.7768 69.3264 62.6971 70.533C63.5279 71.6223 63.511 73.1115 62.656 74.1621C61.7485 75.2772 60.3032 75.7003 59.1328 75.154C58.0726 74.6592 57.4517 73.8083 57.3733 72.6474C57.288 71.3839 57.7485 70.3482 58.9262 69.6326Z" fill="#DDFE02"/>
<path d="M33.9907 41.6924C34.0311 42.6931 34.0777 43.6937 34.1098 44.6947C34.1289 45.2893 34.1252 45.8847 34.1512 46.5546C33.2593 46.6726 32.3479 46.7156 31.3648 46.7384C31.3095 46.6701 31.3353 46.6275 31.4766 46.577C32.1584 46.5665 32.7351 46.5467 33.3088 46.5789C33.8273 46.608 33.9911 46.3963 33.9842 45.8965C33.9648 44.4954 33.9857 43.0938 33.9907 41.6924Z" fill="#DDFE02"/>
<path d="M35.4545 11.2069C35.453 11.1639 35.4822 11.1581 35.5267 11.1799C35.5387 11.1901 35.4819 11.2269 35.4545 11.2069Z" fill="#DDFE02"/>
<path d="M34.0064 41.176C34.0027 42.8082 33.9821 44.3618 34.0012 45.9148C34.0081 46.4688 33.8459 46.7035 33.3322 46.6713C32.7638 46.6356 32.1925 46.6575 31.5473 46.6447C31.4772 38.016 31.4821 29.3969 31.4876 20.7778C31.4884 19.5569 31.4898 19.5497 32.5963 19.5576C34.1936 19.569 33.9991 19.3546 34.0009 21.1401C34.0076 27.7924 34.0046 34.4449 34.0064 41.176Z" fill="#DDFE02"/>
</svg>
